{"accessors" : [{"bufferView" : 0, "byteOffset" : 0, "componentType" : 5123, "count" : 2304, "type" : "SCALAR", "max" : [440], "min" : [0]}, {"bufferView" : 1, "byteOffset" : 0, "componentType" : 5126, "count" : 441, "type" : "VEC3", "max" : [1.7422300577163696, 1.7399460077285767, 1.7457209825515747], "min" : [-1.7422300577163696, -1.7399460077285767, -1.7457209825515747], "name" : "POSITION"}, {"bufferView" : 1, "byteOffset" : 12, "componentType" : 5126, "count" : 441, "type" : "VEC2", "max" : [0.993910014629364, 0.9919120073318481], "min" : [0.006089999806135893, 0.008087992668151855], "name" : "TEXCOORD_0"}, {"bufferView" : 1, "byteOffset" : 20, "componentType" : 5126, "count" : 441, "type" : "VEC3", "max" : [0.9982531666755676, 0.9962960481643677, 0.9998666644096375], "min" : [-0.9982531666755676, -0.9962960481643677, -0.9998666644096375], "name" : "NORMAL"}], "asset" : {"generator" : "Aspose.3D 24.6.0", "version" : "2.0"}, "buffers" : [{"uri" : "buffer.bin", "byteLength" : 18728}], "bufferViews" : [{"buffer" : 0, "byteOffset" : 0, "byteLength" : 4608, "target" : 34963}, {"buffer" : 0, "byteOffset" : 4612, "byteLength" : 14112, "byteStride" : 32, "target" : 34962}], "meshes" : [{"primitives" : [{"attributes" : {"POSITION" : 1, "TEXCOORD_0" : 2, "NORMAL" : 3}, "indices" : 0, "mode" : 4}], "name" : ""}], "nodes" : [{"mesh" : 0, "name" : "Moon_Cube.002"}], "scene" : 0, "scenes" : [{"nodes" : [0]}]}